<svg width="200" height="200" viewBox="0 0 200 200" fill="none" xmlns="http://www.w3.org/2000/svg">
<rect width="200" height="200" fill="black"/>
<path d="M35.1719 124H31.8054V113.091H35.321C36.3793 113.091 37.2848 113.309 38.0376 113.746C38.7905 114.179 39.3675 114.803 39.7688 115.616C40.1701 116.425 40.3707 117.395 40.3707 118.524C40.3707 119.661 40.1683 120.639 39.7635 121.459C39.3587 122.276 38.7692 122.904 37.995 123.345C37.2209 123.782 36.2798 124 35.1719 124ZM33.1264 122.828H35.0866C35.9886 122.828 36.7362 122.654 37.3292 122.306C37.9222 121.958 38.3643 121.463 38.6555 120.82C38.9467 120.177 39.0923 119.412 39.0923 118.524C39.0923 117.643 38.9485 116.885 38.6609 116.25C38.3732 115.61 37.9435 115.12 37.3718 114.779C36.8001 114.435 36.0881 114.263 35.2358 114.263H33.1264V122.828ZM54.4162 118.545C54.4162 119.696 54.2085 120.69 53.793 121.528C53.3775 122.366 52.8075 123.013 52.0831 123.467C51.3587 123.922 50.5313 124.149 49.6009 124.149C48.6705 124.149 47.843 123.922 47.1186 123.467C46.3942 123.013 45.8242 122.366 45.4087 121.528C44.9933 120.69 44.7855 119.696 44.7855 118.545C44.7855 117.395 44.9933 116.401 45.4087 115.562C45.8242 114.724 46.3942 114.078 47.1186 113.624C47.843 113.169 48.6705 112.942 49.6009 112.942C50.5313 112.942 51.3587 113.169 52.0831 113.624C52.8075 114.078 53.3775 114.724 53.793 115.562C54.2085 116.401 54.4162 117.395 54.4162 118.545ZM53.1378 118.545C53.1378 117.601 52.9798 116.804 52.6637 116.154C52.3512 115.504 51.9268 115.012 51.3906 114.678C50.858 114.344 50.2614 114.178 49.6009 114.178C48.9403 114.178 48.342 114.344 47.8058 114.678C47.2731 115.012 46.8487 115.504 46.5327 116.154C46.2202 116.804 46.0639 117.601 46.0639 118.545C46.0639 119.49 46.2202 120.287 46.5327 120.937C46.8487 121.587 47.2731 122.079 47.8058 122.413C48.342 122.746 48.9403 122.913 49.6009 122.913C50.2614 122.913 50.858 122.746 51.3906 122.413C51.9268 122.079 52.3512 121.587 52.6637 120.937C52.9798 120.287 53.1378 119.49 53.1378 118.545ZM65.1687 113.091H66.6815L69.707 118.183H69.8349L72.8604 113.091H74.3732L70.4315 119.504V124H69.1104V119.504L65.1687 113.091ZM87.3986 118.545C87.3986 119.696 87.1909 120.69 86.7754 121.528C86.3599 122.366 85.79 123.013 85.0655 123.467C84.3411 123.922 83.5137 124.149 82.5833 124.149C81.6529 124.149 80.8255 123.922 80.101 123.467C79.3766 123.013 78.8066 122.366 78.3912 121.528C77.9757 120.69 77.7679 119.696 77.7679 118.545C77.7679 117.395 77.9757 116.401 78.3912 115.562C78.8066 114.724 79.3766 114.078 80.101 113.624C80.8255 113.169 81.6529 112.942 82.5833 112.942C83.5137 112.942 84.3411 113.169 85.0655 113.624C85.79 114.078 86.3599 114.724 86.7754 115.562C87.1909 116.401 87.3986 117.395 87.3986 118.545ZM86.1202 118.545C86.1202 117.601 85.9622 116.804 85.6461 116.154C85.3336 115.504 84.9093 115.012 84.373 114.678C83.8404 114.344 83.2438 114.178 82.5833 114.178C81.9228 114.178 81.3244 114.344 80.7882 114.678C80.2555 115.012 79.8311 115.504 79.5151 116.154C79.2026 116.804 79.0463 117.601 79.0463 118.545C79.0463 119.49 79.2026 120.287 79.5151 120.937C79.8311 121.587 80.2555 122.079 80.7882 122.413C81.3244 122.746 81.9228 122.913 82.5833 122.913C83.2438 122.913 83.8404 122.746 84.373 122.413C84.9093 122.079 85.3336 121.587 85.6461 120.937C85.9622 120.287 86.1202 119.49 86.1202 118.545ZM99.4039 113.091H100.725V120.314C100.725 121.06 100.549 121.725 100.198 122.311C99.8496 122.894 99.3578 123.354 98.7221 123.691C98.0865 124.025 97.3407 124.192 96.4849 124.192C95.6291 124.192 94.8833 124.025 94.2477 123.691C93.612 123.354 93.1184 122.894 92.7669 122.311C92.4189 121.725 92.2449 121.06 92.2449 120.314V113.091H93.5659V120.207C93.5659 120.74 93.6831 121.214 93.9174 121.63C94.1518 122.042 94.4856 122.366 94.9189 122.604C95.3556 122.839 95.8777 122.956 96.4849 122.956C97.0922 122.956 97.6142 122.839 98.051 122.604C98.4877 122.366 98.8216 122.042 99.0524 121.63C99.2868 121.214 99.4039 120.74 99.4039 120.207V113.091ZM105.988 124V113.091H109.674C110.526 113.091 111.226 113.237 111.773 113.528C112.32 113.815 112.725 114.211 112.987 114.716C113.25 115.22 113.381 115.793 113.381 116.436C113.381 117.079 113.25 117.649 112.987 118.146C112.725 118.643 112.321 119.034 111.778 119.318C111.235 119.598 110.541 119.739 109.695 119.739H106.712V118.545H109.653C110.235 118.545 110.704 118.46 111.059 118.29C111.418 118.119 111.677 117.878 111.837 117.565C112 117.249 112.082 116.873 112.082 116.436C112.082 115.999 112 115.618 111.837 115.291C111.673 114.964 111.412 114.712 111.054 114.534C110.695 114.353 110.221 114.263 109.631 114.263H107.309V124H105.988ZM111.123 119.099L113.808 124H112.274L109.631 119.099H111.123ZM125.051 124V113.091H128.865C129.625 113.091 130.252 113.222 130.746 113.485C131.239 113.744 131.607 114.094 131.848 114.534C132.09 114.971 132.211 115.456 132.211 115.989C132.211 116.457 132.127 116.844 131.96 117.15C131.797 117.455 131.58 117.697 131.31 117.874C131.044 118.052 130.755 118.183 130.442 118.268V118.375C130.776 118.396 131.112 118.513 131.449 118.727C131.786 118.94 132.069 119.245 132.296 119.643C132.523 120.04 132.637 120.527 132.637 121.102C132.637 121.649 132.512 122.141 132.264 122.578C132.015 123.015 131.623 123.361 131.087 123.616C130.55 123.872 129.853 124 128.993 124H125.051ZM126.373 122.828H128.993C129.856 122.828 130.469 122.661 130.831 122.327C131.197 121.99 131.38 121.582 131.38 121.102C131.38 120.733 131.286 120.392 131.097 120.08C130.909 119.763 130.641 119.511 130.293 119.323C129.945 119.131 129.533 119.036 129.057 119.036H126.373V122.828ZM126.373 117.885H128.823C129.221 117.885 129.579 117.807 129.899 117.651C130.222 117.494 130.478 117.274 130.666 116.99C130.858 116.706 130.953 116.372 130.953 115.989C130.953 115.509 130.787 115.103 130.453 114.769C130.119 114.431 129.59 114.263 128.865 114.263H126.373V117.885ZM137.432 124V113.091H144.016V114.263H138.753V117.949H143.675V119.121H138.753V122.828H144.101V124H137.432ZM154.988 115.818C154.924 115.278 154.665 114.859 154.21 114.561C153.756 114.263 153.198 114.114 152.538 114.114C152.055 114.114 151.632 114.192 151.27 114.348C150.911 114.504 150.631 114.719 150.428 114.993C150.23 115.266 150.13 115.577 150.13 115.925C150.13 116.216 150.199 116.466 150.338 116.676C150.48 116.882 150.661 117.054 150.881 117.192C151.101 117.327 151.332 117.439 151.574 117.528C151.815 117.613 152.037 117.683 152.24 117.736L153.347 118.034C153.632 118.109 153.948 118.212 154.296 118.343C154.647 118.474 154.983 118.654 155.302 118.881C155.626 119.105 155.892 119.392 156.101 119.744C156.311 120.096 156.416 120.527 156.416 121.038C156.416 121.628 156.261 122.161 155.952 122.636C155.647 123.112 155.199 123.49 154.61 123.771C154.024 124.051 153.312 124.192 152.474 124.192C151.693 124.192 151.016 124.066 150.444 123.814C149.876 123.561 149.429 123.21 149.102 122.759C148.779 122.308 148.596 121.784 148.553 121.188H149.917C149.953 121.599 150.091 121.94 150.333 122.21C150.578 122.477 150.887 122.675 151.259 122.807C151.636 122.935 152.041 122.999 152.474 122.999C152.978 122.999 153.431 122.917 153.832 122.754C154.233 122.587 154.551 122.356 154.786 122.061C155.02 121.763 155.137 121.415 155.137 121.017C155.137 120.655 155.036 120.36 154.834 120.133C154.631 119.906 154.365 119.721 154.035 119.579C153.704 119.437 153.347 119.312 152.964 119.206L151.622 118.822C150.769 118.577 150.095 118.228 149.597 117.773C149.1 117.319 148.852 116.724 148.852 115.989C148.852 115.378 149.017 114.845 149.347 114.391C149.681 113.933 150.128 113.577 150.689 113.325C151.254 113.07 151.884 112.942 152.58 112.942C153.284 112.942 153.909 113.068 154.455 113.32C155.002 113.569 155.436 113.909 155.755 114.343C156.078 114.776 156.249 115.268 156.267 115.818H154.988ZM160.616 114.263V113.091H168.798V114.263H165.367V124H164.046V114.263H160.616Z" fill="#DCFF06"/>
<rect x="32" y="62" width="135" height="38" fill="#DCFF06"/>
<g filter="url(#filter0_d_243_49)">
<path d="M39.7159 65.0909C39.6307 64.3712 39.285 63.8125 38.679 63.4148C38.0729 63.017 37.3295 62.8182 36.4489 62.8182C35.8049 62.8182 35.2415 62.9223 34.7585 63.1307C34.2803 63.339 33.9063 63.6255 33.6364 63.9901C33.3712 64.3546 33.2386 64.7689 33.2386 65.233C33.2386 65.6212 33.331 65.955 33.5156 66.2344C33.705 66.509 33.9465 66.7386 34.2401 66.9233C34.5336 67.1032 34.8414 67.2524 35.1634 67.3707C35.4853 67.4844 35.7812 67.5767 36.0511 67.6477L37.5284 68.0455C37.9072 68.1449 38.3286 68.2822 38.7926 68.4574C39.2614 68.6326 39.7088 68.8717 40.1349 69.1747C40.5658 69.473 40.9209 69.8565 41.2003 70.3253C41.4796 70.794 41.6193 71.3693 41.6193 72.0511C41.6193 72.8371 41.4134 73.5473 41.0014 74.1818C40.5942 74.8163 39.9976 75.3205 39.2116 75.6946C38.4304 76.0687 37.4811 76.2557 36.3636 76.2557C35.322 76.2557 34.42 76.0876 33.6577 75.7514C32.9001 75.4152 32.3035 74.9465 31.8679 74.3452C31.437 73.7438 31.1932 73.0455 31.1364 72.25H32.9545C33.0019 72.7992 33.1866 73.2538 33.5085 73.6136C33.8352 73.9687 34.2472 74.2339 34.7443 74.4091C35.2462 74.5795 35.786 74.6648 36.3636 74.6648C37.036 74.6648 37.6397 74.5559 38.1747 74.3381C38.7098 74.1155 39.1335 73.8078 39.446 73.4148C39.7585 73.017 39.9148 72.553 39.9148 72.0227C39.9148 71.5398 39.7798 71.1468 39.5099 70.8438C39.2401 70.5407 38.8849 70.2945 38.4446 70.1051C38.0043 69.9157 37.5284 69.75 37.017 69.608L35.2273 69.0966C34.0909 68.7699 33.1913 68.3035 32.5284 67.6974C31.8655 67.0914 31.5341 66.2983 31.5341 65.3182C31.5341 64.5038 31.7543 63.7936 32.1946 63.1875C32.6397 62.5767 33.2363 62.1032 33.9844 61.767C34.7372 61.4261 35.5777 61.2557 36.5057 61.2557C37.4432 61.2557 38.2765 61.4238 39.0057 61.7599C39.7348 62.0914 40.3125 62.5459 40.7386 63.1236C41.1695 63.7012 41.3968 64.357 41.4205 65.0909H39.7159ZM56.0494 61.4545V76H54.3448L46.4187 64.5795H46.2766V76H44.5153V61.4545H46.2198L54.1744 72.9034H54.3164V61.4545H56.0494ZM59.5739 76V61.4545H68.3523V63.017H61.3352V67.9318H67.8977V69.4943H61.3352V74.4375H68.4659V76H59.5739ZM71.527 76V61.4545H73.2884V67.9318H81.044V61.4545H82.8054V76H81.044V69.4943H73.2884V76H71.527ZM86.9283 76H85.0817L90.4226 61.4545H92.2408L97.5817 76H95.7351L91.3885 63.7557H91.2749L86.9283 76ZM87.6101 70.3182H95.0533V71.8807H87.6101V70.3182ZM43.4659 90H41.7045C41.6004 89.4934 41.4181 89.0483 41.1577 88.6648C40.902 88.2812 40.5895 87.9593 40.2202 87.6989C39.8556 87.4337 39.4508 87.2348 39.0057 87.1023C38.5606 86.9697 38.0966 86.9034 37.6136 86.9034C36.733 86.9034 35.9351 87.1259 35.2202 87.571C34.5099 88.0161 33.9441 88.6719 33.5227 89.5384C33.1061 90.4048 32.8977 91.4678 32.8977 92.7273C32.8977 93.9867 33.1061 95.0497 33.5227 95.9162C33.9441 96.7827 34.5099 97.4384 35.2202 97.8835C35.9351 98.3286 36.733 98.5511 37.6136 98.5511C38.0966 98.5511 38.5606 98.4848 39.0057 98.3523C39.4508 98.2197 39.8556 98.0232 40.2202 97.7628C40.5895 97.4976 40.902 97.1733 41.1577 96.7898C41.4181 96.4015 41.6004 95.9564 41.7045 95.4545H43.4659C43.3333 96.1979 43.0919 96.8632 42.7415 97.4503C42.3911 98.0374 41.9555 98.5369 41.4347 98.9489C40.9138 99.3561 40.3291 99.6662 39.6804 99.8793C39.0365 100.092 38.3475 100.199 37.6136 100.199C36.3731 100.199 35.2699 99.8958 34.304 99.2898C33.3381 98.6837 32.5781 97.822 32.0241 96.7045C31.4702 95.5871 31.1932 94.2614 31.1932 92.7273C31.1932 91.1932 31.4702 89.8674 32.0241 88.75C32.5781 87.6326 33.3381 86.7708 34.304 86.1648C35.2699 85.5587 36.3731 85.2557 37.6136 85.2557C38.3475 85.2557 39.0365 85.3622 39.6804 85.5753C40.3291 85.7884 40.9138 86.1009 41.4347 86.5128C41.9555 86.92 42.3911 87.4171 42.7415 88.0043C43.0919 88.5866 43.3333 89.2519 43.4659 90ZM46.3121 100V85.4545H48.0735V91.9318H55.8292V85.4545H57.5906V100H55.8292V93.4943H48.0735V100H46.3121ZM61.1168 100V85.4545H69.8952V87.017H62.8782V91.9318H69.4407V93.4943H62.8782V98.4375H70.0089V100H61.1168ZM73.07 100V85.4545H74.8313V98.4375H81.5927V100H73.07ZM84.32 100V85.4545H86.0813V98.4375H92.8427V100H84.32ZM97.0845 100H95.2379L100.579 85.4545H102.397L107.738 100H105.891L101.545 87.7557H101.431L97.0845 100ZM97.7663 94.3182H105.21V95.8807H97.7663V94.3182ZM114.492 100H110.004V85.4545H114.691C116.102 85.4545 117.309 85.7457 118.313 86.3281C119.317 86.9058 120.086 87.7367 120.621 88.821C121.156 89.9006 121.424 91.1932 121.424 92.6989C121.424 94.214 121.154 95.5185 120.614 96.6122C120.075 97.7012 119.289 98.5393 118.256 99.1264C117.224 99.7088 115.969 100 114.492 100ZM111.765 98.4375H114.379C115.581 98.4375 116.578 98.2055 117.369 97.7415C118.159 97.2775 118.749 96.617 119.137 95.7599C119.525 94.9029 119.719 93.8826 119.719 92.6989C119.719 91.5246 119.528 90.5137 119.144 89.6662C118.761 88.8139 118.188 88.1605 117.425 87.706C116.663 87.2467 115.714 87.017 114.577 87.017H111.765V98.4375ZM133.924 85.4545H135.685V95.0852C135.685 96.0795 135.451 96.9673 134.982 97.7486C134.518 98.5251 133.862 99.1383 133.015 99.5881C132.167 100.033 131.173 100.256 130.032 100.256C128.891 100.256 127.897 100.033 127.049 99.5881C126.201 99.1383 125.543 98.5251 125.075 97.7486C124.611 96.9673 124.379 96.0795 124.379 95.0852V85.4545H126.14V94.9432C126.14 95.6534 126.296 96.2855 126.609 96.8395C126.921 97.3887 127.366 97.822 127.944 98.1392C128.526 98.4517 129.222 98.608 130.032 98.608C130.842 98.608 131.538 98.4517 132.12 98.1392C132.702 97.822 133.147 97.3887 133.455 96.8395C133.768 96.2855 133.924 95.6534 133.924 94.9432V85.4545ZM139.203 100V85.4545H144.118C145.254 85.4545 146.187 85.6487 146.916 86.0369C147.645 86.4205 148.185 86.9484 148.535 87.6207C148.886 88.2931 149.061 89.0578 149.061 89.9148C149.061 90.7718 148.886 91.5317 148.535 92.1946C148.185 92.8575 147.647 93.3783 146.923 93.7571C146.199 94.1312 145.273 94.3182 144.146 94.3182H140.169V92.7273H144.089C144.866 92.7273 145.491 92.6136 145.964 92.3864C146.442 92.1591 146.788 91.8371 147.001 91.4205C147.219 90.9991 147.328 90.4972 147.328 89.9148C147.328 89.3324 147.219 88.8234 147.001 88.3878C146.783 87.9522 146.435 87.616 145.957 87.3793C145.479 87.1378 144.847 87.017 144.061 87.017H140.964V100H139.203ZM146.049 93.4659L149.629 100H147.583L144.061 93.4659H146.049ZM152.592 100H150.746L156.087 85.4545H157.905L163.246 100H161.399L157.053 87.7557H156.939L152.592 100ZM153.274 94.3182H160.717V95.8807H153.274V94.3182ZM167.273 85.4545V100H165.511V85.4545H167.273Z" fill="black"/>
</g>
<defs>
<filter id="filter0_d_243_49" x="27.1362" y="61.2556" width="144.137" height="47" filterUnits="userSpaceOnUse" color-interpolation-filters="sRGB">
<feFlood flood-opacity="0" result="BackgroundImageFix"/>
<feColorMatrix in="SourceAlpha" type="matrix" values="0 0 0 0 0 0 0 0 0 0 0 0 0 0 0 0 0 0 127 0" result="hardAlpha"/>
<feOffset dy="4"/>
<feGaussianBlur stdDeviation="2"/>
<feComposite in2="hardAlpha" operator="out"/>
<feColorMatrix type="matrix" values="0 0 0 0 0 0 0 0 0 0 0 0 0 0 0 0 0 0 0.25 0"/>
<feBlend mode="normal" in2="BackgroundImageFix" result="effect1_dropShadow_243_49"/>
<feBlend mode="normal" in="SourceGraphic" in2="effect1_dropShadow_243_49" result="shape"/>
</filter>
</defs>
</svg>
